<svg width="92" height="120" viewBox="0 0 92 120" fill="none" xmlns="http://www.w3.org/2000/svg">
    <circle cx="4" cy="4" r="4" fill="yellow" />
    <circle cx="4" cy="32" r="4" fill="yellow" />
    <circle cx="4" cy="60" r="4" fill="yellow" />
    <circle cx="4" cy="88" r="4" fill="yellow" />
    <circle cx="4" cy="116" r="4" fill="yellow" />
    <circle cx="32" cy="4" r="4" fill="yellow" />
    <circle cx="32" cy="32" r="4" fill="yellow" />
    <circle cx="32" cy="60" r="4" fill="yellow" />
    <circle cx="32" cy="88" r="4" fill="yellow" />
    <circle cx="32" cy="116" r="4" fill="yellow" />
    <circle cx="60" cy="4" r="4" fill="yellow" />
    <circle cx="60" cy="32" r="4" fill="yellow" />
    <circle cx="60" cy="60" r="4" fill="yellow" />
    <circle cx="60" cy="88" r="4" fill="yellow" />
    <circle cx="60" cy="116" r="4" fill="yellow" />
    <circle cx="88" cy="4" r="4" fill="yellow" />
    <circle cx="88" cy="32" r="4" fill="yellow" />
    <circle cx="88" cy="60" r="4" fill="yellow" />
    <circle cx="88" cy="88" r="4" fill="yellow" />
    <circle cx="88" cy="116" r="4" fill="yellow" />
</svg>
    