<svg width="68" height="68" viewBox="0 0 68 68" fill="none" xmlns="http://www.w3.org/2000/svg">
    <rect width="68" height="68" rx="7" fill="#FF0" />
    <mask id="mask0_99_8" style="mask-type:alpha" maskUnits="userSpaceOnUse" x="10" y="10"
        width="48" height="48">
        <rect x="10" y="10" width="48" height="48" fill="#D9D9D9" />
    </mask>
    <g mask="url(#mask0_99_8)">
        <path
            d="M18.769 52C18.0007 52 17.347 51.7307 16.808 51.192C16.2693 50.653 16 49.9993 16 49.231V18.769C16 18.0007 16.2693 17.347 16.808 16.808C17.347 16.2693 18.0007 16 18.769 16H35L44 25V35.9885H42.4615V26H34V17.5385H18.769C18.4613 17.5385 18.1793 17.6667 17.923 17.923C17.6667 18.1793 17.5385 18.4613 17.5385 18.769V49.231C17.5385 49.5387 17.6667 49.8207 17.923 50.077C18.1793 50.3333 18.4613 50.4615 18.769 50.4615H38.077V52H18.769ZM46.846 52L40.5845 45.7L41.646 44.5885L46.077 49.0575V38.969H47.6155V49.0575L52.046 44.627L53.1075 45.7L46.846 52Z"
            fill="black" />
    </g>
</svg>
    