<svg width="268" height="74" viewBox="0 0 268 74" fill="none" xmlns="http://www.w3.org/2000/svg">
    <mask id="path-1-outside-1_71_923" maskUnits="userSpaceOnUse" x="3" y="8" width="201"
        height="54" fill="yellow">
        <rect fill="yellow" x="3" y="8" width="201" height="54" />
        <path
            d="M5.832 59V11.336H11.232V59H5.832ZM22.9179 59V11.336H29.1819L58.6299 51.44V11.336H64.0299V59H57.7659L28.3179 18.752V59H22.9179ZM95.7386 59.576C90.9866 59.576 86.8826 58.496 83.4266 56.336C79.9706 54.128 77.3066 51.176 75.4346 47.48C73.6106 43.784 72.6986 39.68 72.6986 35.168C72.6986 30.656 73.6106 26.552 75.4346 22.856C77.3066 19.16 79.9706 16.232 83.4266 14.072C86.8826 11.864 90.9866 10.76 95.7386 10.76C99.3386 10.76 102.579 11.408 105.459 12.704C108.339 13.952 110.787 15.68 112.803 17.888C114.819 20.096 116.331 22.664 117.339 25.592H111.651C110.451 22.664 108.555 20.336 105.963 18.608C103.371 16.88 100.107 16.016 96.1706 16.016C92.3306 16.016 89.0426 16.88 86.3066 18.608C83.6186 20.288 81.5786 22.568 80.1866 25.448C78.7946 28.328 78.0986 31.568 78.0986 35.168C78.0986 38.72 78.7946 41.96 80.1866 44.888C81.5786 47.768 83.6186 50.072 86.3066 51.8C89.0426 53.48 92.3306 54.32 96.1706 54.32C100.107 54.32 103.371 53.456 105.963 51.728C108.555 50 110.451 47.672 111.651 44.744H117.339C116.331 47.624 114.819 50.192 112.803 52.448C110.787 54.656 108.339 56.408 105.459 57.704C102.579 58.952 99.3386 59.576 95.7386 59.576ZM125.434 59V11.336H130.834V53.816H156.826V59H125.434ZM181.019 59.576C177.083 59.576 173.579 58.712 170.507 56.984C167.483 55.208 165.107 52.736 163.379 49.568C161.651 46.4 160.787 42.704 160.787 38.48V11.336H166.187V38.624C166.187 42.32 166.883 45.32 168.275 47.624C169.715 49.928 171.563 51.632 173.819 52.736C176.123 53.792 178.523 54.32 181.019 54.32C183.563 54.32 185.963 53.792 188.219 52.736C190.475 51.632 192.323 49.928 193.763 47.624C195.203 45.32 195.923 42.32 195.923 38.624V11.336H201.323V38.48C201.323 42.656 200.459 46.328 198.731 49.496C197.003 52.664 194.603 55.136 191.531 56.912C188.507 58.688 185.003 59.576 181.019 59.576Z" />
    </mask>
    <path
        d="M5.832 59V11.336H11.232V59H5.832ZM22.9179 59V11.336H29.1819L58.6299 51.44V11.336H64.0299V59H57.7659L28.3179 18.752V59H22.9179ZM95.7386 59.576C90.9866 59.576 86.8826 58.496 83.4266 56.336C79.9706 54.128 77.3066 51.176 75.4346 47.48C73.6106 43.784 72.6986 39.68 72.6986 35.168C72.6986 30.656 73.6106 26.552 75.4346 22.856C77.3066 19.16 79.9706 16.232 83.4266 14.072C86.8826 11.864 90.9866 10.76 95.7386 10.76C99.3386 10.76 102.579 11.408 105.459 12.704C108.339 13.952 110.787 15.68 112.803 17.888C114.819 20.096 116.331 22.664 117.339 25.592H111.651C110.451 22.664 108.555 20.336 105.963 18.608C103.371 16.88 100.107 16.016 96.1706 16.016C92.3306 16.016 89.0426 16.88 86.3066 18.608C83.6186 20.288 81.5786 22.568 80.1866 25.448C78.7946 28.328 78.0986 31.568 78.0986 35.168C78.0986 38.72 78.7946 41.96 80.1866 44.888C81.5786 47.768 83.6186 50.072 86.3066 51.8C89.0426 53.48 92.3306 54.32 96.1706 54.32C100.107 54.32 103.371 53.456 105.963 51.728C108.555 50 110.451 47.672 111.651 44.744H117.339C116.331 47.624 114.819 50.192 112.803 52.448C110.787 54.656 108.339 56.408 105.459 57.704C102.579 58.952 99.3386 59.576 95.7386 59.576ZM125.434 59V11.336H130.834V53.816H156.826V59H125.434ZM181.019 59.576C177.083 59.576 173.579 58.712 170.507 56.984C167.483 55.208 165.107 52.736 163.379 49.568C161.651 46.4 160.787 42.704 160.787 38.48V11.336H166.187V38.624C166.187 42.32 166.883 45.32 168.275 47.624C169.715 49.928 171.563 51.632 173.819 52.736C176.123 53.792 178.523 54.32 181.019 54.32C183.563 54.32 185.963 53.792 188.219 52.736C190.475 51.632 192.323 49.928 193.763 47.624C195.203 45.32 195.923 42.32 195.923 38.624V11.336H201.323V38.48C201.323 42.656 200.459 46.328 198.731 49.496C197.003 52.664 194.603 55.136 191.531 56.912C188.507 58.688 185.003 59.576 181.019 59.576Z"
        fill="yellow" />
    <path
        d="M5.832 59H3.832V61H5.832V59ZM5.832 11.336V9.336H3.832V11.336H5.832ZM11.232 11.336H13.232V9.336H11.232V11.336ZM11.232 59V61H13.232V59H11.232ZM7.832 59V11.336H3.832V59H7.832ZM5.832 13.336H11.232V9.336H5.832V13.336ZM9.232 11.336V59H13.232V11.336H9.232ZM11.232 57H5.832V61H11.232V57ZM22.9179 59H20.9179V61H22.9179V59ZM22.9179 11.336V9.336H20.9179V11.336H22.9179ZM29.1819 11.336L30.794 10.1523L30.1946 9.336H29.1819V11.336ZM58.6299 51.44L57.0179 52.6237L60.6299 57.5429V51.44H58.6299ZM58.6299 11.336V9.336H56.6299V11.336H58.6299ZM64.0299 11.336H66.0299V9.336H64.0299V11.336ZM64.0299 59V61H66.0299V59H64.0299ZM57.7659 59L56.1518 60.181L56.7511 61H57.7659V59ZM28.3179 18.752L29.932 17.571L26.3179 12.6315V18.752H28.3179ZM28.3179 59V61H30.3179V59H28.3179ZM24.9179 59V11.336H20.9179V59H24.9179ZM22.9179 13.336H29.1819V9.336H22.9179V13.336ZM27.5699 12.5197L57.0179 52.6237L60.242 50.2563L30.794 10.1523L27.5699 12.5197ZM60.6299 51.44V11.336H56.6299V51.44H60.6299ZM58.6299 13.336H64.0299V9.336H58.6299V13.336ZM62.0299 11.336V59H66.0299V11.336H62.0299ZM64.0299 57H57.7659V61H64.0299V57ZM59.38 57.819L29.932 17.571L26.7038 19.933L56.1518 60.181L59.38 57.819ZM26.3179 18.752V59H30.3179V18.752H26.3179ZM28.3179 57H22.9179V61H28.3179V57ZM83.4266 56.336L82.3498 58.0214L82.3582 58.0267L82.3666 58.032L83.4266 56.336ZM75.4346 47.48L73.6411 48.3651L73.6457 48.3744L73.6504 48.3837L75.4346 47.48ZM75.4346 22.856L73.6504 21.9523L73.6457 21.9616L73.6411 21.9709L75.4346 22.856ZM83.4266 14.072L84.4866 15.768L84.495 15.7627L84.5034 15.7574L83.4266 14.072ZM105.459 12.704L104.638 14.5278L104.651 14.5336L104.663 14.5391L105.459 12.704ZM117.339 25.592V27.592H120.142L119.23 24.941L117.339 25.592ZM111.651 25.592L109.8 26.3504L110.309 27.592H111.651V25.592ZM105.963 18.608L107.072 16.9439V16.9439L105.963 18.608ZM86.3066 18.608L87.3666 20.304L87.3746 20.299L86.3066 18.608ZM80.1866 44.888L78.3803 45.7467L78.3859 45.7583L80.1866 44.888ZM86.3066 51.8L85.2251 53.4824L85.2425 53.4935L85.2601 53.5043L86.3066 51.8ZM105.963 51.728L107.072 53.3921L105.963 51.728ZM111.651 44.744V42.744H110.309L109.8 43.9855L111.651 44.744ZM117.339 44.744L119.226 45.4047L120.158 42.744H117.339V44.744ZM112.803 52.448L114.28 53.7965L114.287 53.7886L114.294 53.7807L112.803 52.448ZM105.459 57.704L106.254 59.5391L106.267 59.5336L106.279 59.5278L105.459 57.704ZM95.7386 57.576C91.2982 57.576 87.5751 56.5703 84.4866 54.64L82.3666 58.032C86.1902 60.4217 90.6751 61.576 95.7386 61.576V57.576ZM84.5034 54.6506C81.3521 52.6373 78.9309 49.9566 77.2188 46.5763L73.6504 48.3837C75.6823 52.3954 78.5891 55.6187 82.3498 58.0214L84.5034 54.6506ZM77.2281 46.5949C75.5525 43.1995 74.6986 39.4026 74.6986 35.168H70.6986C70.6986 39.9574 71.6688 44.3685 73.6411 48.3651L77.2281 46.5949ZM74.6986 35.168C74.6986 30.9334 75.5525 27.1365 77.2281 23.7411L73.6411 21.9709C71.6688 25.9675 70.6986 30.3786 70.6986 35.168H74.6986ZM77.2188 23.7597C78.929 20.3832 81.3451 17.7315 84.4866 15.768L82.3666 12.376C78.5962 14.7325 75.6842 17.9368 73.6504 21.9523L77.2188 23.7597ZM84.5034 15.7574C87.5894 13.7858 91.3064 12.76 95.7386 12.76V8.76C90.6669 8.76 86.1758 9.94222 82.3498 12.3866L84.5034 15.7574ZM95.7386 12.76C99.0952 12.76 102.05 13.3631 104.638 14.5278L106.279 10.8802C103.108 9.45285 99.5821 8.76 95.7386 8.76V12.76ZM104.663 14.5391C107.298 15.6806 109.509 17.2474 111.326 19.2365L114.28 16.5395C112.064 14.1126 109.38 12.2234 106.254 10.8689L104.663 14.5391ZM111.326 19.2365C113.151 21.2355 114.525 23.5639 115.448 26.243L119.23 24.941C118.136 21.7641 116.486 18.9565 114.28 16.5395L111.326 19.2365ZM117.339 23.592H111.651V27.592H117.339V23.592ZM113.501 24.8336C112.153 21.5427 110.001 18.8968 107.072 16.9439L104.853 20.2721C107.108 21.7752 108.749 23.7853 109.8 26.3504L113.501 24.8336ZM107.072 16.9439C104.075 14.9456 100.398 14.016 96.1706 14.016V18.016C99.8156 18.016 102.667 18.8144 104.853 20.2721L107.072 16.9439ZM96.1706 14.016C92.024 14.016 88.3498 14.9521 85.2386 16.917L87.3746 20.299C89.7355 18.8079 92.6372 18.016 96.1706 18.016V14.016ZM85.2466 16.912C82.2357 18.7938 79.9405 21.3614 78.3859 24.5777L81.9873 26.3183C83.2168 23.7746 85.0015 21.7822 87.3666 20.304L85.2466 16.912ZM78.3859 24.5777C76.8471 27.7614 76.0986 31.3046 76.0986 35.168H80.0986C80.0986 31.8314 80.7421 28.8946 81.9873 26.3183L78.3859 24.5777ZM76.0986 35.168C76.0986 38.9883 76.849 42.5256 78.3804 45.7467L81.9929 44.0293C80.7402 41.3944 80.0986 38.4517 80.0986 35.168H76.0986ZM78.3859 45.7583C79.9381 48.9697 82.2268 51.5549 85.2251 53.4824L87.3881 50.1176C85.0104 48.5891 83.2191 46.5663 81.9873 44.0177L78.3859 45.7583ZM85.2601 53.5043C88.3678 55.4126 92.0341 56.32 96.1706 56.32V52.32C92.6271 52.32 89.7174 51.5474 87.3531 50.0957L85.2601 53.5043ZM96.1706 56.32C100.398 56.32 104.075 55.3904 107.072 53.3921L104.853 50.0639C102.667 51.5216 99.8156 52.32 96.1706 52.32V56.32ZM107.072 53.3921C110.001 51.4392 112.153 48.7933 113.501 45.5024L109.8 43.9855C108.749 46.5507 107.108 48.5608 104.853 50.0639L107.072 53.3921ZM111.651 46.744H117.339V42.744H111.651V46.744ZM115.451 44.0833C114.529 46.7176 113.151 49.0568 111.311 51.1153L114.294 53.7807C116.486 51.3272 118.132 48.5304 119.226 45.4047L115.451 44.0833ZM111.326 51.0995C109.504 53.0947 107.283 54.6897 104.638 55.8802L106.279 59.5278C109.394 58.1263 112.069 56.2173 114.28 53.7965L111.326 51.0995ZM104.663 55.8689C102.069 56.9933 99.105 57.576 95.7386 57.576V61.576C99.5722 61.576 103.089 60.9107 106.254 59.5391L104.663 55.8689ZM125.434 59H123.434V61H125.434V59ZM125.434 11.336V9.336H123.434V11.336H125.434ZM130.834 11.336H132.834V9.336H130.834V11.336ZM130.834 53.816H128.834V55.816H130.834V53.816ZM156.826 53.816H158.826V51.816H156.826V53.816ZM156.826 59V61H158.826V59H156.826ZM127.434 59V11.336H123.434V59H127.434ZM125.434 13.336H130.834V9.336H125.434V13.336ZM128.834 11.336V53.816H132.834V11.336H128.834ZM130.834 55.816H156.826V51.816H130.834V55.816ZM154.826 53.816V59H158.826V53.816H154.826ZM156.826 57H125.434V61H156.826V57ZM170.507 56.984L169.494 58.7086L169.51 58.718L169.527 58.7271L170.507 56.984ZM163.379 49.568L161.623 50.5257L163.379 49.568ZM160.787 11.336V9.336H158.787V11.336H160.787ZM166.187 11.336H168.187V9.336H166.187V11.336ZM168.275 47.624L166.563 48.6582L166.571 48.6712L166.579 48.684L168.275 47.624ZM173.819 52.736L172.94 54.5324L172.963 54.5436L172.986 54.5541L173.819 52.736ZM188.219 52.736L189.067 54.5474L189.083 54.54L189.098 54.5324L188.219 52.736ZM193.763 47.624L192.067 46.564V46.564L193.763 47.624ZM195.923 11.336V9.336H193.923V11.336H195.923ZM201.323 11.336H203.323V9.336H201.323V11.336ZM198.731 49.496L200.487 50.4537L198.731 49.496ZM191.531 56.912L190.53 55.1805L190.518 55.1874L191.531 56.912ZM181.019 57.576C177.386 57.576 174.227 56.7815 171.488 55.2408L169.527 58.7271C172.932 60.6425 176.781 61.576 181.019 61.576V57.576ZM171.52 55.2594C168.818 53.6725 166.695 51.4698 165.135 48.6103L161.623 50.5257C163.52 54.0022 166.148 56.7435 169.494 58.7086L171.52 55.2594ZM165.135 48.6103C163.593 45.7826 162.787 42.4266 162.787 38.48H158.787C158.787 42.9813 159.71 47.0174 161.623 50.5257L165.135 48.6103ZM162.787 38.48V11.336H158.787V38.48H162.787ZM160.787 13.336H166.187V9.336H160.787V13.336ZM164.187 11.336V38.624H168.187V11.336H164.187ZM164.187 38.624C164.187 42.5539 164.925 45.9467 166.563 48.6582L169.987 46.5898C168.841 44.6933 168.187 42.0861 168.187 38.624H164.187ZM166.579 48.684C168.201 51.2781 170.321 53.2507 172.94 54.5324L174.698 50.9396C172.806 50.0133 171.23 48.5779 169.971 46.564L166.579 48.684ZM172.986 54.5541C175.547 55.7281 178.231 56.32 181.019 56.32V52.32C178.815 52.32 176.699 51.8559 174.653 50.9179L172.986 54.5541ZM181.019 56.32C183.85 56.32 186.54 55.7303 189.067 54.5474L187.371 50.9246C185.387 51.8537 183.277 52.32 181.019 52.32V56.32ZM189.098 54.5324C191.718 53.2507 193.838 51.2781 195.459 48.684L192.067 46.564C190.809 48.5779 189.233 50.0133 187.34 50.9396L189.098 54.5324ZM195.459 48.684C197.157 45.9671 197.923 42.5642 197.923 38.624H193.923C193.923 42.0758 193.249 44.6729 192.067 46.564L195.459 48.684ZM197.923 38.624V11.336H193.923V38.624H197.923ZM195.923 13.336H201.323V9.336H195.923V13.336ZM199.323 11.336V38.48H203.323V11.336H199.323ZM199.323 38.48C199.323 42.3744 198.52 45.7073 196.975 48.5383L200.487 50.4537C202.399 46.9487 203.323 42.9376 203.323 38.48H199.323ZM196.975 48.5383C195.42 51.3897 193.279 53.5915 190.53 55.1805L192.532 58.6435C195.928 56.6805 198.586 53.9383 200.487 50.4537L196.975 48.5383ZM190.518 55.1874C187.841 56.7596 184.697 57.576 181.019 57.576V61.576C185.31 61.576 189.173 60.6164 192.544 58.6366L190.518 55.1874Z"
        fill="yellow" mask="url(#path-1-outside-1_71_923)" />
    <mask id="path-3-outside-2_71_923" maskUnits="userSpaceOnUse" x="211" y="9" width="57"
        height="52" fill="yellow">
        <rect fill="yellow" x="211" y="9" width="57" height="52" />
        <path
            d="M213.832 59V11.336H219.232V59H213.832ZM230.918 59V11.336H265.334V16.52H236.318V33.08H262.166V38.336H236.318V59H230.918Z" />
    </mask>
    <path
        d="M213.832 59V11.336H219.232V59H213.832ZM230.918 59V11.336H265.334V16.52H236.318V33.08H262.166V38.336H236.318V59H230.918Z"
        fill="#55FF99" />
    <path
        d="M213.832 59H211.832V61H213.832V59ZM213.832 11.336V9.336H211.832V11.336H213.832ZM219.232 11.336H221.232V9.336H219.232V11.336ZM219.232 59V61H221.232V59H219.232ZM215.832 59V11.336H211.832V59H215.832ZM213.832 13.336H219.232V9.336H213.832V13.336ZM217.232 11.336V59H221.232V11.336H217.232ZM219.232 57H213.832V61H219.232V57ZM230.918 59H228.918V61H230.918V59ZM230.918 11.336V9.336H228.918V11.336H230.918ZM265.334 11.336H267.334V9.336H265.334V11.336ZM265.334 16.52V18.52H267.334V16.52H265.334ZM236.318 16.52V14.52H234.318V16.52H236.318ZM236.318 33.08H234.318V35.08H236.318V33.08ZM262.166 33.08H264.166V31.08H262.166V33.08ZM262.166 38.336V40.336H264.166V38.336H262.166ZM236.318 38.336V36.336H234.318V38.336H236.318ZM236.318 59V61H238.318V59H236.318ZM232.918 59V11.336H228.918V59H232.918ZM230.918 13.336H265.334V9.336H230.918V13.336ZM263.334 11.336V16.52H267.334V11.336H263.334ZM265.334 14.52H236.318V18.52H265.334V14.52ZM234.318 16.52V33.08H238.318V16.52H234.318ZM236.318 35.08H262.166V31.08H236.318V35.08ZM260.166 33.08V38.336H264.166V33.08H260.166ZM262.166 36.336H236.318V40.336H262.166V36.336ZM234.318 38.336V59H238.318V38.336H234.318ZM236.318 57H230.918V61H236.318V57Z"
        fill="#55FF99" mask="url(#path-3-outside-2_71_923)" />
</svg>
    