<svg width="40" height="40" viewBox="0 0 40 40" fill="none" xmlns="http://www.w3.org/2000/svg">
    <mask id="mask0_139_47" style="mask-type:alpha" maskUnits="userSpaceOnUse" x="0" y="0" width="40" height="40">
    <rect width="40" height="40" fill="#D9D9D9"/>
    </mask>
    <g mask="url(#mask0_139_47)">
    <path d="M19.9948 36.6673C17.6892 36.6673 15.5226 36.2298 13.4948 35.3548C11.467 34.4798 9.70313 33.2923 8.20313 31.7923C6.70313 30.2923 5.51563 28.5284 4.64063 26.5007C3.76563 24.4729 3.32812 22.3062 3.32812 20.0007C3.32812 17.6951 3.76563 15.5284 4.64063 13.5007C5.51563 11.4729 6.70313 9.70899 8.20313 8.20899C9.70313 6.70899 11.467 5.52149 13.4948 4.64648C15.5226 3.77148 17.6892 3.33398 19.9948 3.33398C22.3004 3.33398 24.467 3.77148 26.4948 4.64648C28.5226 5.52149 30.2865 6.70899 31.7865 8.20899C33.2865 9.70899 34.474 11.4729 35.349 13.5007C36.224 15.5284 36.6615 17.6951 36.6615 20.0007C36.6615 22.3062 36.224 24.4729 35.349 26.5007C34.474 28.5284 33.2865 30.2923 31.7865 31.7923C30.2865 33.2923 28.5226 34.4798 26.4948 35.3548C24.467 36.2298 22.3004 36.6673 19.9948 36.6673ZM20.8281 34.1673C24.6337 33.8895 27.8073 32.4173 30.349 29.7507C32.8906 27.084 34.1615 23.834 34.1615 20.0007C34.1615 16.1673 32.8906 12.9173 30.349 10.2507C27.8073 7.58399 24.6337 6.11176 20.8281 5.83399V34.1673Z" fill="#1C1B1F"/>
    </g>
    </svg>
    