<svg width="120" height="33" viewBox="0 0 120 33" fill="none" xmlns="http://www.w3.org/2000/svg">
    <mask id="path-1-outside-1_43_1445" maskUnits="userSpaceOnUse" x="1" y="3" width="90"
        height="25" fill="black">
        <rect fill="white" x="1" y="3" width="90" height="25" />
        <path
            d="M2.59047 26V4.82854H4.98904V26H2.59047ZM10.1797 26V4.82854H12.9621L26.0423 22.642V4.82854H28.4409V26H25.6586L12.5783 8.12259V26H10.1797ZM42.5253 26.2558C40.4146 26.2558 38.5916 25.7761 37.0566 24.8167C35.5215 23.8359 34.3382 22.5247 33.5067 20.883C32.6965 19.2413 32.2914 17.4184 32.2914 15.4143C32.2914 13.4101 32.6965 11.5872 33.5067 9.94551C34.3382 8.30381 35.5215 7.00325 37.0566 6.04382C38.5916 5.06307 40.4146 4.57269 42.5253 4.57269C44.1244 4.57269 45.5635 4.86052 46.8428 5.43618C48.122 5.99052 49.2094 6.75806 50.1048 7.73882C51.0003 8.71957 51.6719 9.86023 52.1196 11.1608H49.5931C49.0601 9.86023 48.2179 8.82617 47.0666 8.05863C45.9153 7.29108 44.4655 6.90731 42.7172 6.90731C41.0115 6.90731 39.5511 7.29108 38.3358 8.05863C37.1418 8.80485 36.2357 9.81758 35.6174 11.0968C34.9991 12.3761 34.69 13.8152 34.69 15.4143C34.69 16.992 34.9991 18.4311 35.6174 19.7317C36.2357 21.011 37.1418 22.0343 38.3358 22.8019C39.5511 23.5481 41.0115 23.9212 42.7172 23.9212C44.4655 23.9212 45.9153 23.5375 47.0666 22.7699C48.2179 22.0024 49.0601 20.9683 49.5931 19.6678H52.1196C51.6719 20.947 51.0003 22.0877 50.1048 23.0897C49.2094 24.0705 48.122 24.8487 46.8428 25.4243C45.5635 25.9787 44.1244 26.2558 42.5253 26.2558ZM55.7152 26V4.82854H58.1138V23.6974H69.659V26H55.7152ZM80.4054 26.2558C78.6571 26.2558 77.1007 25.8721 75.7361 25.1045C74.3929 24.3157 73.3376 23.2176 72.57 21.8105C71.8025 20.4033 71.4187 18.7616 71.4187 16.8854V4.82854H73.8173V16.9494C73.8173 18.5911 74.1264 19.9236 74.7447 20.947C75.3843 21.9704 76.2052 22.7273 77.2073 23.2176C78.2307 23.6867 79.2967 23.9212 80.4054 23.9212C81.5354 23.9212 82.6014 23.6867 83.6035 23.2176C84.6055 22.7273 85.4264 21.9704 86.066 20.947C86.7056 19.9236 87.0255 18.5911 87.0255 16.9494V4.82854H89.424V16.8854C89.424 18.7403 89.0403 20.3713 88.2727 21.7785C87.5052 23.1857 86.4391 24.2837 85.0746 25.0725C83.7314 25.8614 82.175 26.2558 80.4054 26.2558Z" />
    </mask>
    <path
        d="M2.59047 26V4.82854H4.98904V26H2.59047ZM10.1797 26V4.82854H12.9621L26.0423 22.642V4.82854H28.4409V26H25.6586L12.5783 8.12259V26H10.1797ZM42.5253 26.2558C40.4146 26.2558 38.5916 25.7761 37.0566 24.8167C35.5215 23.8359 34.3382 22.5247 33.5067 20.883C32.6965 19.2413 32.2914 17.4184 32.2914 15.4143C32.2914 13.4101 32.6965 11.5872 33.5067 9.94551C34.3382 8.30381 35.5215 7.00325 37.0566 6.04382C38.5916 5.06307 40.4146 4.57269 42.5253 4.57269C44.1244 4.57269 45.5635 4.86052 46.8428 5.43618C48.122 5.99052 49.2094 6.75806 50.1048 7.73882C51.0003 8.71957 51.6719 9.86023 52.1196 11.1608H49.5931C49.0601 9.86023 48.2179 8.82617 47.0666 8.05863C45.9153 7.29108 44.4655 6.90731 42.7172 6.90731C41.0115 6.90731 39.5511 7.29108 38.3358 8.05863C37.1418 8.80485 36.2357 9.81758 35.6174 11.0968C34.9991 12.3761 34.69 13.8152 34.69 15.4143C34.69 16.992 34.9991 18.4311 35.6174 19.7317C36.2357 21.011 37.1418 22.0343 38.3358 22.8019C39.5511 23.5481 41.0115 23.9212 42.7172 23.9212C44.4655 23.9212 45.9153 23.5375 47.0666 22.7699C48.2179 22.0024 49.0601 20.9683 49.5931 19.6678H52.1196C51.6719 20.947 51.0003 22.0877 50.1048 23.0897C49.2094 24.0705 48.122 24.8487 46.8428 25.4243C45.5635 25.9787 44.1244 26.2558 42.5253 26.2558ZM55.7152 26V4.82854H58.1138V23.6974H69.659V26H55.7152ZM80.4054 26.2558C78.6571 26.2558 77.1007 25.8721 75.7361 25.1045C74.3929 24.3157 73.3376 23.2176 72.57 21.8105C71.8025 20.4033 71.4187 18.7616 71.4187 16.8854V4.82854H73.8173V16.9494C73.8173 18.5911 74.1264 19.9236 74.7447 20.947C75.3843 21.9704 76.2052 22.7273 77.2073 23.2176C78.2307 23.6867 79.2967 23.9212 80.4054 23.9212C81.5354 23.9212 82.6014 23.6867 83.6035 23.2176C84.6055 22.7273 85.4264 21.9704 86.066 20.947C86.7056 19.9236 87.0255 18.5911 87.0255 16.9494V4.82854H89.424V16.8854C89.424 18.7403 89.0403 20.3713 88.2727 21.7785C87.5052 23.1857 86.4391 24.2837 85.0746 25.0725C83.7314 25.8614 82.175 26.2558 80.4054 26.2558Z"
        fill="black" />
    <path
        d="M2.59047 26H1.7021V26.8884H2.59047V26ZM2.59047 4.82854V3.94018H1.7021V4.82854H2.59047ZM4.98904 4.82854H5.87741V3.94018H4.98904V4.82854ZM4.98904 26V26.8884H5.87741V26H4.98904ZM3.47883 26V4.82854H1.7021V26H3.47883ZM2.59047 5.7169H4.98904V3.94018H2.59047V5.7169ZM4.10068 4.82854V26H5.87741V4.82854H4.10068ZM4.98904 25.1116H2.59047V26.8884H4.98904V25.1116ZM10.1797 26H9.29136V26.8884H10.1797V26ZM10.1797 4.82854V3.94018H9.29136V4.82854H10.1797ZM12.9621 4.82854L13.6781 4.30275L13.4119 3.94018H12.9621V4.82854ZM26.0423 22.642L25.3263 23.1678L26.9307 25.3528V22.642H26.0423ZM26.0423 4.82854V3.94018H25.154V4.82854H26.0423ZM28.4409 4.82854H29.3293V3.94018H28.4409V4.82854ZM28.4409 26V26.8884H29.3293V26H28.4409ZM25.6586 26L24.9416 26.5246L25.2078 26.8884H25.6586V26ZM12.5783 8.12259L13.2952 7.59802L11.6899 5.40396V8.12259H12.5783ZM12.5783 26V26.8884H13.4667V26H12.5783ZM11.0681 26V4.82854H9.29136V26H11.0681ZM10.1797 5.7169H12.9621V3.94018H10.1797V5.7169ZM12.246 5.35433L25.3263 23.1678L26.7584 22.1162L13.6781 4.30275L12.246 5.35433ZM26.9307 22.642V4.82854H25.154V22.642H26.9307ZM26.0423 5.7169H28.4409V3.94018H26.0423V5.7169ZM27.5525 4.82854V26H29.3293V4.82854H27.5525ZM28.4409 25.1116H25.6586V26.8884H28.4409V25.1116ZM26.3755 25.4754L13.2952 7.59802L11.8613 8.64716L24.9416 26.5246L26.3755 25.4754ZM11.6899 8.12259V26H13.4667V8.12259H11.6899ZM12.5783 25.1116H10.1797V26.8884H12.5783V25.1116ZM37.0565 24.8167L36.5782 25.5654L36.5857 25.57L37.0565 24.8167ZM33.5067 20.883L32.71 21.2762L32.7141 21.2844L33.5067 20.883ZM33.5067 9.94551L32.7141 9.54409L32.71 9.55236L33.5067 9.94551ZM37.0565 6.04382L37.5274 6.79719L37.5348 6.79244L37.0565 6.04382ZM46.8428 5.43618L46.4782 6.24638L46.4895 6.2513L46.8428 5.43618ZM52.1196 11.1608V12.0492H53.365L52.9596 10.8716L52.1196 11.1608ZM49.5931 11.1608L48.7711 11.4977L48.9971 12.0492H49.5931V11.1608ZM47.0666 8.05863L47.5594 7.31946L47.5594 7.31946L47.0666 8.05863ZM38.3358 8.05863L38.8066 8.81196L38.8102 8.80973L38.3358 8.05863ZM35.6174 11.0968L34.8176 10.7102L35.6174 11.0968ZM35.6174 19.7317L34.8151 20.1131L34.8176 20.1183L35.6174 19.7317ZM38.3358 22.8019L37.8554 23.5492L37.8631 23.5541L37.8709 23.5589L38.3358 22.8019ZM47.0666 22.7699L47.5594 23.5091H47.5594L47.0666 22.7699ZM49.5931 19.6678V18.7794H48.9971L48.7711 19.3309L49.5931 19.6678ZM52.1196 19.6678L52.9581 19.9612L53.3718 18.7794H52.1196V19.6678ZM50.1048 23.0897L50.7609 23.6888L50.7672 23.6817L50.1048 23.0897ZM46.8428 25.4243L47.196 26.2395L47.2073 26.2345L46.8428 25.4243ZM42.5253 25.3675C40.5529 25.3675 38.8992 24.9208 37.5274 24.0634L36.5857 25.57C38.2841 26.6315 40.2762 27.1442 42.5253 27.1442V25.3675ZM37.5348 24.0681C36.1351 23.1738 35.0596 21.9831 34.2992 20.4816L32.7141 21.2844C33.6167 23.0664 34.9078 24.4981 36.5783 25.5653L37.5348 24.0681ZM34.3033 20.4899C33.559 18.9817 33.1797 17.2952 33.1797 15.4143H31.403C31.403 17.5416 31.8339 19.501 32.71 21.2762L34.3033 20.4899ZM33.1797 15.4143C33.1797 13.5334 33.559 11.8468 34.3033 10.3387L32.71 9.55236C31.8339 11.3276 31.403 13.2869 31.403 15.4143H33.1797ZM34.2992 10.3469C35.0588 8.84712 36.132 7.66929 37.5274 6.79715L36.5857 5.29049C34.911 6.33721 33.6175 7.76051 32.7141 9.54411L34.2992 10.3469ZM37.5348 6.79244C38.9056 5.91669 40.5566 5.46105 42.5253 5.46105V3.68433C40.2725 3.68433 38.2777 4.20945 36.5783 5.2952L37.5348 6.79244ZM42.5253 5.46105C44.0162 5.46105 45.3286 5.72896 46.4782 6.2463L47.2073 4.62606C45.7985 3.99208 44.2325 3.68433 42.5253 3.68433V5.46105ZM46.4895 6.2513C47.6596 6.75832 48.6421 7.45426 49.4488 8.33781L50.7609 7.13982C49.7766 6.06186 48.5844 5.22272 47.196 4.62106L46.4895 6.2513ZM49.4488 8.33781C50.2595 9.22572 50.87 10.26 51.2796 11.45L52.9596 10.8716C52.4738 9.46049 51.7411 8.21341 50.7609 7.13982L49.4488 8.33781ZM52.1196 10.2724H49.5931V12.0492H52.1196V10.2724ZM50.4151 10.8239C49.8161 9.36218 48.8606 8.18691 47.5594 7.31946L46.5738 8.79779C47.5753 9.46543 48.3041 10.3583 48.7711 11.4977L50.4151 10.8239ZM47.5594 7.31946C46.228 6.43186 44.5948 6.01895 42.7172 6.01895V7.79567C44.3362 7.79567 45.6026 8.1503 46.5738 8.79779L47.5594 7.31946ZM42.7172 6.01895C40.8754 6.01895 39.2433 6.43475 37.8614 7.30752L38.8102 8.80973C39.8588 8.14742 41.1477 7.79567 42.7172 7.79567V6.01895ZM37.865 7.3053C36.5276 8.14116 35.5081 9.28163 34.8176 10.7102L36.4172 11.4834C36.9633 10.3535 37.7561 9.46854 38.8066 8.81196L37.865 7.3053ZM34.8176 10.7102C34.1341 12.1244 33.8016 13.6982 33.8016 15.4143H35.5783C35.5783 13.9322 35.8641 12.6278 36.4172 11.4834L34.8176 10.7102ZM33.8016 15.4143C33.8016 17.1112 34.1349 18.6824 34.8151 20.1131L36.4197 19.3503C35.8633 18.1799 35.5783 16.8728 35.5783 15.4143H33.8016ZM34.8176 20.1183C35.507 21.5447 36.5236 22.693 37.8554 23.5492L38.8162 22.0546C37.76 21.3757 36.9644 20.4772 36.4172 19.3451L34.8176 20.1183ZM37.8709 23.5589C39.2513 24.4065 40.8799 24.8096 42.7172 24.8096V23.0329C41.1432 23.0329 39.8508 22.6897 38.8006 22.0449L37.8709 23.5589ZM42.7172 24.8096C44.5948 24.8096 46.228 24.3967 47.5594 23.5091L46.5738 22.0308C45.6026 22.6782 44.3362 23.0329 42.7172 23.0329V24.8096ZM47.5594 23.5091C48.8606 22.6416 49.8161 21.4664 50.4151 20.0046L48.7711 19.3309C48.3041 20.4703 47.5753 21.3631 46.5738 22.0308L47.5594 23.5091ZM49.5931 20.5561H52.1196V18.7794H49.5931V20.5561ZM51.2811 19.3743C50.8716 20.5444 50.2595 21.5834 49.4424 22.4978L50.7672 23.6817C51.7411 22.5919 52.4722 21.3496 52.9581 19.9612L51.2811 19.3743ZM49.4488 22.4907C48.6396 23.377 47.6532 24.0855 46.4782 24.6142L47.2073 26.2345C48.5908 25.6119 49.7791 24.764 50.7609 23.6887L49.4488 22.4907ZM46.4895 24.6092C45.337 25.1087 44.0206 25.3675 42.5253 25.3675V27.1442C44.2281 27.1442 45.79 26.8487 47.196 26.2395L46.4895 24.6092ZM55.7152 26H54.8269V26.8884H55.7152V26ZM55.7152 4.82854V3.94018H54.8269V4.82854H55.7152ZM58.1138 4.82854H59.0022V3.94018H58.1138V4.82854ZM58.1138 23.6974H57.2255V24.5857H58.1138V23.6974ZM69.659 23.6974H70.5474V22.809H69.659V23.6974ZM69.659 26V26.8884H70.5474V26H69.659ZM56.6036 26V4.82854H54.8269V26H56.6036ZM55.7152 5.7169H58.1138V3.94018H55.7152V5.7169ZM57.2255 4.82854V23.6974H59.0022V4.82854H57.2255ZM58.1138 24.5857H69.659V22.809H58.1138V24.5857ZM68.7706 23.6974V26H70.5474V23.6974H68.7706ZM69.659 25.1116H55.7152V26.8884H69.659V25.1116ZM75.7361 25.1045L75.2862 25.8706L75.2934 25.8747L75.3006 25.8788L75.7361 25.1045ZM72.57 21.8105L71.7901 22.2359L72.57 21.8105ZM71.4187 4.82854V3.94018H70.5303V4.82854H71.4187ZM73.8173 4.82854H74.7056V3.94018H73.8173V4.82854ZM74.7447 20.947L73.9843 21.4064L73.9914 21.4178L74.7447 20.947ZM77.2073 23.2176L76.8168 24.0156L76.8269 24.0205L76.8371 24.0252L77.2073 23.2176ZM83.6035 23.2176L83.9801 24.0222L83.9871 24.019L83.994 24.0156L83.6035 23.2176ZM86.066 20.947L85.3127 20.4762L86.066 20.947ZM87.0255 4.82854V3.94018H86.1371V4.82854H87.0255ZM89.424 4.82854H90.3124V3.94018H89.424V4.82854ZM88.2727 21.7785L89.0526 22.2039L88.2727 21.7785ZM85.0746 25.0725L84.63 24.3034L84.6247 24.3065L85.0746 25.0725ZM80.4054 25.3675C78.7915 25.3675 77.3882 25.0146 76.1717 24.3303L75.3006 25.8788C76.8131 26.7296 78.5227 27.1442 80.4054 27.1442V25.3675ZM76.186 24.3385C74.9858 23.6336 74.0427 22.6552 73.3499 21.3851L71.7901 22.2359C72.6324 23.7801 73.8 24.9977 75.2862 25.8706L76.186 24.3385ZM73.3499 21.3851C72.6648 20.1291 72.3071 18.6384 72.3071 16.8854H70.5303C70.5303 18.8848 70.9401 20.6776 71.7901 22.2359L73.3499 21.3851ZM72.3071 16.8854V4.82854H70.5303V16.8854H72.3071ZM71.4187 5.7169H73.8173V3.94018H71.4187V5.7169ZM72.9289 4.82854V16.9494H74.7056V4.82854H72.9289ZM72.9289 16.9494C72.9289 18.695 73.2567 20.202 73.9844 21.4064L75.5051 20.4876C74.9962 19.6452 74.7056 18.4872 74.7056 16.9494H72.9289ZM73.9914 21.4178C74.7115 22.5701 75.6534 23.4463 76.8168 24.0156L77.5977 22.4197C76.757 22.0083 76.0572 21.3707 75.4981 20.4762L73.9914 21.4178ZM76.8371 24.0252C77.9748 24.5467 79.1669 24.8096 80.4054 24.8096V23.0329C79.4265 23.0329 78.4865 22.8267 77.5774 22.4101L76.8371 24.0252ZM80.4054 24.8096C81.6627 24.8096 82.8576 24.5477 83.9801 24.0222L83.2269 22.4131C82.3452 22.8257 81.4081 23.0329 80.4054 23.0329V24.8096ZM83.994 24.0156C85.1574 23.4463 86.0992 22.5701 86.8194 21.4178L85.3127 20.4762C84.7536 21.3707 84.0537 22.0083 83.213 22.4197L83.994 24.0156ZM86.8193 21.4178C87.5736 20.211 87.9138 18.6995 87.9138 16.9494H86.1371C86.1371 18.4826 85.8377 19.6362 85.3127 20.4762L86.8193 21.4178ZM87.9138 16.9494V4.82854H86.1371V16.9494H87.9138ZM87.0255 5.7169H89.424V3.94018H87.0255V5.7169ZM88.5357 4.82854V16.8854H90.3124V4.82854H88.5357ZM88.5357 16.8854C88.5357 18.6152 88.1787 20.0956 87.4928 21.3531L89.0526 22.2039C89.9018 20.647 90.3124 18.8654 90.3124 16.8854H88.5357ZM87.4928 21.3531C86.802 22.6197 85.8508 23.5977 84.63 24.3035L85.5192 25.8416C87.0274 24.9697 88.2084 23.7517 89.0526 22.2039L87.4928 21.3531ZM84.6247 24.3065C83.4357 25.0049 82.0387 25.3675 80.4054 25.3675V27.1442C82.3112 27.1442 84.0271 26.718 85.5245 25.8386L84.6247 24.3065Z"
        fill="black" mask="url(#path-1-outside-1_43_1445)" />
    <mask id="path-3-outside-2_43_1445" maskUnits="userSpaceOnUse" x="93.3898" y="3" width="26"
        height="24" fill="black">
        <rect fill="white" x="93.3898" y="3" width="26" height="24" />
        <path
            d="M94.9802 26V4.82854H97.3788V26H94.9802ZM102.569 26V4.82854H117.856V7.13118H104.968V14.4868H116.449V16.8214H104.968V26H102.569Z" />
    </mask>
    <path
        d="M94.9802 26V4.82854H97.3788V26H94.9802ZM102.569 26V4.82854H117.856V7.13118H104.968V14.4868H116.449V16.8214H104.968V26H102.569Z"
        fill="#AA0066" />
    <path
        d="M94.9802 26H94.0919V26.8884H94.9802V26ZM94.9802 4.82854V3.94018H94.0919V4.82854H94.9802ZM97.3788 4.82854H98.2672V3.94018H97.3788V4.82854ZM97.3788 26V26.8884H98.2672V26H97.3788ZM95.8686 26V4.82854H94.0919V26H95.8686ZM94.9802 5.7169H97.3788V3.94018H94.9802V5.7169ZM96.4905 4.82854V26H98.2672V4.82854H96.4905ZM97.3788 25.1116H94.9802V26.8884H97.3788V25.1116ZM102.569 26H101.681V26.8884H102.569V26ZM102.569 4.82854V3.94018H101.681V4.82854H102.569ZM117.856 4.82854H118.745V3.94018H117.856V4.82854ZM117.856 7.13118V8.01954H118.745V7.13118H117.856ZM104.968 7.13118V6.24281H104.08V7.13118H104.968ZM104.968 14.4868H104.08V15.3752H104.968V14.4868ZM116.449 14.4868H117.338V13.5985H116.449V14.4868ZM116.449 16.8214V17.7098H117.338V16.8214H116.449ZM104.968 16.8214V15.9331H104.08V16.8214H104.968ZM104.968 26V26.8884H105.856V26H104.968ZM103.458 26V4.82854H101.681V26H103.458ZM102.569 5.7169H117.856V3.94018H102.569V5.7169ZM116.968 4.82854V7.13118H118.745V4.82854H116.968ZM117.856 6.24281H104.968V8.01954H117.856V6.24281ZM104.08 7.13118V14.4868H105.856V7.13118H104.08ZM104.968 15.3752H116.449V13.5985H104.968V15.3752ZM115.561 14.4868V16.8214H117.338V14.4868H115.561ZM116.449 15.9331H104.968V17.7098H116.449V15.9331ZM104.08 16.8214V26H105.856V16.8214H104.08ZM104.968 25.1116H102.569V26.8884H104.968V25.1116Z"
        fill="#AA0066" mask="url(#path-3-outside-2_43_1445)" />
</svg>