<svg width="197" height="54" viewBox="0 0 197 54" fill="none" xmlns="http://www.w3.org/2000/svg">
    <mask id="path-1-outside-1_43_1232" maskUnits="userSpaceOnUse" x="2" y="6" width="147"
        height="39" fill="black">
        <rect fill="white" x="2" y="6" width="147" height="39" />
        <path
            d="M4.26519 43V8.14125H8.21445V43H4.26519ZM16.7609 43V8.14125H21.342L42.8786 37.471V8.14125H46.8279V43H42.2467L20.7101 13.5649V43H16.7609ZM70.0178 43.4213C66.5425 43.4213 63.541 42.6314 61.0135 41.0517C58.486 39.4369 56.5377 37.278 55.1686 34.5749C53.8346 31.8719 53.1676 28.8704 53.1676 25.5706C53.1676 22.2708 53.8346 19.2694 55.1686 16.5663C56.5377 13.8633 58.486 11.7219 61.0135 10.1422C63.541 8.5274 66.5425 7.72 70.0178 7.72C72.6506 7.72 75.0202 8.19391 77.1265 9.14173C79.2327 10.0544 81.0231 11.3182 82.4974 12.933C83.9718 14.5478 85.0776 16.4259 85.8148 18.5673H81.6549C80.7773 16.4259 79.3907 14.7233 77.4951 13.4596C75.5994 12.1958 73.2123 11.5639 70.3337 11.5639C67.5254 11.5639 65.1207 12.1958 63.1198 13.4596C61.1539 14.6882 59.662 16.3557 58.6439 18.462C57.6259 20.5682 57.1169 22.9378 57.1169 25.5706C57.1169 28.1684 57.6259 30.5379 58.6439 32.6793C59.662 34.7856 61.1539 36.4706 63.1198 37.7343C65.1207 38.963 67.5254 39.5773 70.3337 39.5773C73.2123 39.5773 75.5994 38.9454 77.4951 37.6817C79.3907 36.4179 80.7773 34.7153 81.6549 32.574H85.8148C85.0776 34.6802 83.9718 36.5583 82.4974 38.2082C81.0231 39.823 79.2327 41.1044 77.1265 42.0522C75.0202 42.9649 72.6506 43.4213 70.0178 43.4213ZM91.735 43V8.14125H95.6842V39.2087H114.693V43H91.735ZM132.387 43.4213C129.509 43.4213 126.946 42.7894 124.699 41.5256C122.488 40.2267 120.75 38.4189 119.486 36.102C118.223 33.7851 117.591 31.082 117.591 27.9928V8.14125H121.54V28.0981C121.54 30.8012 122.049 32.9952 123.067 34.6802C124.12 36.3653 125.472 37.6115 127.122 38.4189C128.807 39.1912 130.562 39.5773 132.387 39.5773C134.248 39.5773 136.003 39.1912 137.653 38.4189C139.303 37.6115 140.654 36.3653 141.707 34.6802C142.761 32.9952 143.287 30.8012 143.287 28.0981V8.14125H147.236V27.9928C147.236 31.0469 146.605 33.7324 145.341 36.0493C144.077 38.3662 142.322 40.1741 140.075 41.473C137.864 42.7718 135.301 43.4213 132.387 43.4213Z" />
    </mask>
    <path
        d="M4.26519 43V8.14125H8.21445V43H4.26519ZM16.7609 43V8.14125H21.342L42.8786 37.471V8.14125H46.8279V43H42.2467L20.7101 13.5649V43H16.7609ZM70.0178 43.4213C66.5425 43.4213 63.541 42.6314 61.0135 41.0517C58.486 39.4369 56.5377 37.278 55.1686 34.5749C53.8346 31.8719 53.1676 28.8704 53.1676 25.5706C53.1676 22.2708 53.8346 19.2694 55.1686 16.5663C56.5377 13.8633 58.486 11.7219 61.0135 10.1422C63.541 8.5274 66.5425 7.72 70.0178 7.72C72.6506 7.72 75.0202 8.19391 77.1265 9.14173C79.2327 10.0544 81.0231 11.3182 82.4974 12.933C83.9718 14.5478 85.0776 16.4259 85.8148 18.5673H81.6549C80.7773 16.4259 79.3907 14.7233 77.4951 13.4596C75.5994 12.1958 73.2123 11.5639 70.3337 11.5639C67.5254 11.5639 65.1207 12.1958 63.1198 13.4596C61.1539 14.6882 59.662 16.3557 58.6439 18.462C57.6259 20.5682 57.1169 22.9378 57.1169 25.5706C57.1169 28.1684 57.6259 30.5379 58.6439 32.6793C59.662 34.7856 61.1539 36.4706 63.1198 37.7343C65.1207 38.963 67.5254 39.5773 70.3337 39.5773C73.2123 39.5773 75.5994 38.9454 77.4951 37.6817C79.3907 36.4179 80.7773 34.7153 81.6549 32.574H85.8148C85.0776 34.6802 83.9718 36.5583 82.4974 38.2082C81.0231 39.823 79.2327 41.1044 77.1265 42.0522C75.0202 42.9649 72.6506 43.4213 70.0178 43.4213ZM91.735 43V8.14125H95.6842V39.2087H114.693V43H91.735ZM132.387 43.4213C129.509 43.4213 126.946 42.7894 124.699 41.5256C122.488 40.2267 120.75 38.4189 119.486 36.102C118.223 33.7851 117.591 31.082 117.591 27.9928V8.14125H121.54V28.0981C121.54 30.8012 122.049 32.9952 123.067 34.6802C124.12 36.3653 125.472 37.6115 127.122 38.4189C128.807 39.1912 130.562 39.5773 132.387 39.5773C134.248 39.5773 136.003 39.1912 137.653 38.4189C139.303 37.6115 140.654 36.3653 141.707 34.6802C142.761 32.9952 143.287 30.8012 143.287 28.0981V8.14125H147.236V27.9928C147.236 31.0469 146.605 33.7324 145.341 36.0493C144.077 38.3662 142.322 40.1741 140.075 41.473C137.864 42.7718 135.301 43.4213 132.387 43.4213Z"
        fill="white" />
    <path
        d="M4.26519 43H2.80251V44.4627H4.26519V43ZM4.26519 8.14125V6.67856H2.80251V8.14125H4.26519ZM8.21445 8.14125H9.67713V6.67856H8.21445V8.14125ZM8.21445 43V44.4627H9.67713V43H8.21445ZM5.72788 43V8.14125H2.80251V43H5.72788ZM4.26519 9.60394H8.21445V6.67856H4.26519V9.60394ZM6.75176 8.14125V43H9.67713V8.14125H6.75176ZM8.21445 41.5373H4.26519V44.4627H8.21445V41.5373ZM16.7609 43H15.2982V44.4627H16.7609V43ZM16.7609 8.14125V6.67856H15.2982V8.14125H16.7609ZM21.342 8.14125L22.521 7.27554L22.0826 6.67856H21.342V8.14125ZM42.8786 37.471L41.6996 38.3368L44.3413 41.9343V37.471H42.8786ZM42.8786 8.14125V6.67856H41.4159V8.14125H42.8786ZM46.8279 8.14125H48.2906V6.67856H46.8279V8.14125ZM46.8279 43V44.4627H48.2906V43H46.8279ZM42.2467 43L41.0663 43.8637L41.5045 44.4627H42.2467V43ZM20.7101 13.5649L21.8906 12.7012L19.2474 9.08869V13.5649H20.7101ZM20.7101 43V44.4627H22.1728V43H20.7101ZM18.2236 43V8.14125H15.2982V43H18.2236ZM16.7609 9.60394H21.342V6.67856H16.7609V9.60394ZM20.163 9.00696L41.6996 38.3368L44.0576 36.6053L22.521 7.27554L20.163 9.00696ZM44.3413 37.471V8.14125H41.4159V37.471H44.3413ZM42.8786 9.60394H46.8279V6.67856H42.8786V9.60394ZM45.3652 8.14125V43H48.2906V8.14125H45.3652ZM46.8279 41.5373H42.2467V44.4627H46.8279V41.5373ZM43.4272 42.1363L21.8906 12.7012L19.5297 14.4286L41.0663 43.8637L43.4272 42.1363ZM19.2474 13.5649V43H22.1728V13.5649H19.2474ZM20.7101 41.5373H16.7609V44.4627H20.7101V41.5373ZM61.0135 41.0517L60.226 42.2843L60.2321 42.2882L60.2383 42.2921L61.0135 41.0517ZM55.1686 34.5749L53.8569 35.2222L53.8603 35.229L53.8637 35.2358L55.1686 34.5749ZM55.1686 16.5663L53.8637 15.9054L53.8603 15.9122L53.8569 15.919L55.1686 16.5663ZM61.0135 10.1422L61.7887 11.3826L61.7949 11.3787L61.801 11.3748L61.0135 10.1422ZM77.1265 9.14173L76.5262 10.4756L76.5355 10.4798L76.5449 10.4838L77.1265 9.14173ZM85.8148 18.5673V20.03H87.8653L87.1978 18.0912L85.8148 18.5673ZM81.6549 18.5673L80.3015 19.122L80.6736 20.03H81.6549V18.5673ZM77.4951 13.4596L78.3064 12.2426V12.2426L77.4951 13.4596ZM63.1198 13.4596L63.895 14.6999L63.9008 14.6963L63.1198 13.4596ZM58.6439 32.6793L57.3229 33.3073L57.327 33.3158L58.6439 32.6793ZM63.1198 37.7343L62.3288 38.9647L62.3415 38.9729L62.3544 38.9808L63.1198 37.7343ZM77.4951 37.6817L78.3064 38.8987L77.4951 37.6817ZM81.6549 32.574V31.1113H80.6736L80.3015 32.0193L81.6549 32.574ZM85.8148 32.574L87.1954 33.0572L87.8764 31.1113H85.8148V32.574ZM82.4974 38.2082L83.5776 39.1945L83.5829 39.1887L83.5881 39.1829L82.4974 38.2082ZM77.1265 42.0522L77.708 43.3943L77.7174 43.3902L77.7267 43.386L77.1265 42.0522ZM70.0178 41.9586C66.7703 41.9586 64.0474 41.223 61.7887 39.8113L60.2383 42.2921C63.0346 44.0398 66.3146 44.8839 70.0178 44.8839V41.9586ZM61.801 39.8191C59.4963 38.3467 57.7256 36.3862 56.4735 33.914L53.8637 35.2358C55.3498 38.1698 57.4756 40.5271 60.226 42.2843L61.801 39.8191ZM56.4803 33.9276C55.2548 31.4444 54.6303 28.6676 54.6303 25.5706H51.705C51.705 29.0733 52.4145 32.2994 53.8569 35.2222L56.4803 33.9276ZM54.6303 25.5706C54.6303 22.4737 55.2548 19.6968 56.4803 17.2136L53.8569 15.919C52.4145 18.8419 51.705 22.0679 51.705 25.5706H54.6303ZM56.4735 17.2272C57.7242 14.7578 59.4912 12.8185 61.7887 11.3826L60.2383 8.90185C57.4808 10.6253 55.3512 12.9687 53.8637 15.9054L56.4735 17.2272ZM61.801 11.3748C64.0579 9.93288 66.7763 9.18269 70.0178 9.18269V6.25731C66.3086 6.25731 63.0241 7.12192 60.226 8.90961L61.801 11.3748ZM70.0178 9.18269C72.4726 9.18269 74.6334 9.6238 76.5262 10.4756L77.7267 7.80788C75.407 6.76403 72.8287 6.25731 70.0178 6.25731V9.18269ZM76.5449 10.4838C78.4713 11.3186 80.089 12.4645 81.4173 13.9193L83.5776 11.9468C81.9571 10.1719 79.9941 8.79027 77.708 7.79963L76.5449 10.4838ZM81.4173 13.9193C82.7521 15.3812 83.7573 17.0841 84.4318 19.0434L87.1978 18.0912C86.398 15.7677 85.1916 13.7144 83.5776 11.9468L81.4173 13.9193ZM85.8148 17.1046H81.6549V20.03H85.8148V17.1046ZM83.0084 18.0126C82.022 15.6059 80.4488 13.6708 78.3064 12.2426L76.6837 14.6766C78.3326 15.7759 79.5326 17.2459 80.3015 19.122L83.0084 18.0126ZM78.3064 12.2426C76.1143 10.7811 73.4251 10.1013 70.3337 10.1013V13.0266C72.9995 13.0266 75.0846 13.6105 76.6837 14.6766L78.3064 12.2426ZM70.3337 10.1013C67.3012 10.1013 64.614 10.7859 62.3387 12.2229L63.9008 14.6963C65.6274 13.6058 67.7496 13.0266 70.3337 13.0266V10.1013ZM62.3445 12.2192C60.1426 13.5955 58.4639 15.4733 57.327 17.8255L59.9609 19.0985C60.86 17.2381 62.1653 15.781 63.895 14.6999L62.3445 12.2192ZM57.327 17.8255C56.2016 20.1538 55.6542 22.7452 55.6542 25.5706H58.5796C58.5796 23.1304 59.0502 20.9827 59.9609 19.0985L57.327 17.8255ZM55.6542 25.5706C55.6542 28.3646 56.203 30.9515 57.3229 33.3073L59.965 32.0513C59.0488 30.1243 58.5796 27.9721 58.5796 25.5706H55.6542ZM57.327 33.3158C58.4622 35.6644 60.136 37.5551 62.3288 38.9647L63.9107 36.5039C62.1718 35.3861 60.8618 33.9067 59.9609 32.0428L57.327 33.3158ZM62.3544 38.9808C64.6272 40.3764 67.3086 41.04 70.3337 41.04V38.1146C67.7422 38.1146 65.6142 37.5496 63.8851 36.4879L62.3544 38.9808ZM70.3337 41.04C73.4251 41.04 76.1143 40.3601 78.3064 38.8987L76.6837 36.4646C75.0846 37.5307 72.9995 38.1146 70.3337 38.1146V41.04ZM78.3064 38.8987C80.4488 37.4704 82.022 35.5354 83.0084 33.1287L80.3015 32.0193C79.5326 33.8953 78.3326 35.3654 76.6837 36.4646L78.3064 38.8987ZM81.6549 34.0367H85.8148V31.1113H81.6549V34.0367ZM84.4342 32.0908C83.7599 34.0174 82.7521 35.7281 81.4068 37.2336L83.5881 39.1829C85.1916 37.3885 86.3953 35.3431 87.1954 33.0572L84.4342 32.0908ZM81.4173 37.222C80.085 38.6812 78.4609 39.8477 76.5262 40.7183L77.7267 43.386C80.0046 42.361 81.9611 40.9649 83.5776 39.1945L81.4173 37.222ZM76.5449 40.7101C74.6472 41.5324 72.4798 41.9586 70.0178 41.9586V44.8839C72.8215 44.8839 75.3931 44.3974 77.708 43.3943L76.5449 40.7101ZM91.735 43H90.2723V44.4627H91.735V43ZM91.735 8.14125V6.67856H90.2723V8.14125H91.735ZM95.6842 8.14125H97.1469V6.67856H95.6842V8.14125ZM95.6842 39.2087H94.2216V40.6714H95.6842V39.2087ZM114.693 39.2087H116.156V37.746H114.693V39.2087ZM114.693 43V44.4627H116.156V43H114.693ZM93.1977 43V8.14125H90.2723V43H93.1977ZM91.735 9.60394H95.6842V6.67856H91.735V9.60394ZM94.2216 8.14125V39.2087H97.1469V8.14125H94.2216ZM95.6842 40.6714H114.693V37.746H95.6842V40.6714ZM113.231 39.2087V43H116.156V39.2087H113.231ZM114.693 41.5373H91.735V44.4627H114.693V41.5373ZM124.699 41.5256L123.959 42.7869L123.97 42.7938L123.982 42.8005L124.699 41.5256ZM119.486 36.102L118.202 36.8024L119.486 36.102ZM117.591 8.14125V6.67856H116.128V8.14125H117.591ZM121.54 8.14125H123.003V6.67856H121.54V8.14125ZM123.067 34.6802L121.815 35.4366L121.821 35.4461L121.827 35.4555L123.067 34.6802ZM127.122 38.4189L126.479 39.7327L126.495 39.7408L126.512 39.7485L127.122 38.4189ZM137.653 38.4189L138.273 39.7436L138.284 39.7382L138.296 39.7327L137.653 38.4189ZM141.707 34.6802L140.467 33.905V33.905L141.707 34.6802ZM143.287 8.14125V6.67856H141.824V8.14125H143.287ZM147.236 8.14125H148.699V6.67856H147.236V8.14125ZM145.341 36.0493L146.625 36.7497L145.341 36.0493ZM140.075 41.473L139.343 40.2066L139.334 40.2117L140.075 41.473ZM132.387 41.9586C129.73 41.9586 127.42 41.3775 125.416 40.2508L123.982 42.8005C126.473 44.2012 129.287 44.8839 132.387 44.8839V41.9586ZM125.44 40.2644C123.464 39.1038 121.911 37.4928 120.77 35.4016L118.202 36.8024C119.589 39.3449 121.512 41.3497 123.959 42.7869L125.44 40.2644ZM120.77 35.4016C119.642 33.3335 119.053 30.8792 119.053 27.9928H116.128C116.128 31.2849 116.803 34.2366 118.202 36.8024L120.77 35.4016ZM119.053 27.9928V8.14125H116.128V27.9928H119.053ZM117.591 9.60394H121.54V6.67856H117.591V9.60394ZM120.077 8.14125V28.0981H123.003V8.14125H120.077ZM120.077 28.0981C120.077 30.9723 120.617 33.4535 121.815 35.4366L124.319 33.9239C123.481 32.5369 123.003 30.6301 123.003 28.0981H120.077ZM121.827 35.4555C123.012 37.3526 124.563 38.7953 126.479 39.7327L127.764 37.1051C126.38 36.4276 125.228 35.3779 124.307 33.905L121.827 35.4555ZM126.512 39.7485C128.385 40.6071 130.348 41.04 132.387 41.04V38.1146C130.775 38.1146 129.228 37.7752 127.731 37.0892L126.512 39.7485ZM132.387 41.04C134.457 41.04 136.425 40.6087 138.273 39.7436L137.033 37.0941C135.581 37.7736 134.038 38.1146 132.387 38.1146V41.04ZM138.296 39.7327C140.211 38.7953 141.762 37.3526 142.948 35.4555L140.467 33.905C139.547 35.3779 138.394 36.4276 137.01 37.1051L138.296 39.7327ZM142.948 35.4555C144.19 33.4685 144.75 30.9798 144.75 28.0981H141.824C141.824 30.6226 141.331 32.522 140.467 33.905L142.948 35.4555ZM144.75 28.0981V8.14125H141.824V28.0981H144.75ZM143.287 9.60394H147.236V6.67856H143.287V9.60394ZM145.774 8.14125V27.9928H148.699V8.14125H145.774ZM145.774 27.9928C145.774 30.841 145.186 33.2785 144.057 35.3489L146.625 36.7497C148.023 34.1863 148.699 31.2529 148.699 27.9928H145.774ZM144.057 35.3489C142.919 37.4343 141.353 39.0446 139.343 40.2067L140.807 42.7393C143.29 41.3036 145.235 39.2981 146.625 36.7497L144.057 35.3489ZM139.334 40.2117C137.377 41.3615 135.077 41.9586 132.387 41.9586V44.8839C135.525 44.8839 138.35 44.1821 140.816 42.7342L139.334 40.2117Z"
        fill="white" mask="url(#path-1-outside-1_43_1232)" />
    <mask id="path-3-outside-2_43_1232" maskUnits="userSpaceOnUse" x="154.119" y="6" width="42"
        height="39" fill="black">
        <rect fill="white" x="154.119" y="6" width="42" height="39" />
        <path
            d="M156.385 43V8.14125H160.334V43H156.385ZM168.88 43V8.14125H194.05V11.9325H172.83V24.0436H191.733V27.8875H172.83V43H168.88Z" />
    </mask>
    <path
        d="M156.385 43V8.14125H160.334V43H156.385ZM168.88 43V8.14125H194.05V11.9325H172.83V24.0436H191.733V27.8875H172.83V43H168.88Z"
        fill="#D33B96" />
    <path
        d="M156.385 43H154.922V44.4627H156.385V43ZM156.385 8.14125V6.67856H154.922V8.14125H156.385ZM160.334 8.14125H161.797V6.67856H160.334V8.14125ZM160.334 43V44.4627H161.797V43H160.334ZM157.847 43V8.14125H154.922V43H157.847ZM156.385 9.60394H160.334V6.67856H156.385V9.60394ZM158.871 8.14125V43H161.797V8.14125H158.871ZM160.334 41.5373H156.385V44.4627H160.334V41.5373ZM168.88 43H167.418V44.4627H168.88V43ZM168.88 8.14125V6.67856H167.418V8.14125H168.88ZM194.05 8.14125H195.513V6.67856H194.05V8.14125ZM194.05 11.9325V13.3952H195.513V11.9325H194.05ZM172.83 11.9325V10.4698H171.367V11.9325H172.83ZM172.83 24.0436H171.367V25.5063H172.83V24.0436ZM191.733 24.0436H193.196V22.5809H191.733V24.0436ZM191.733 27.8875V29.3502H193.196V27.8875H191.733ZM172.83 27.8875V26.4248H171.367V27.8875H172.83ZM172.83 43V44.4627H174.292V43H172.83ZM170.343 43V8.14125H167.418V43H170.343ZM168.88 9.60394H194.05V6.67856H168.88V9.60394ZM192.587 8.14125V11.9325H195.513V8.14125H192.587ZM194.05 10.4698H172.83V13.3952H194.05V10.4698ZM171.367 11.9325V24.0436H174.292V11.9325H171.367ZM172.83 25.5063H191.733V22.5809H172.83V25.5063ZM190.271 24.0436V27.8875H193.196V24.0436H190.271ZM191.733 26.4248H172.83V29.3502H191.733V26.4248ZM171.367 27.8875V43H174.292V27.8875H171.367ZM172.83 41.5373H168.88V44.4627H172.83V41.5373Z"
        fill="#D33B96" mask="url(#path-3-outside-2_43_1232)" />
</svg>
    