<svg width="40" height="40" viewBox="0 0 40 40" fill="none" xmlns="http://www.w3.org/2000/svg">
    <rect width="40" height="40" rx="8" fill="#AA0066"/>
    <mask id="mask0_153_21" style="mask-type:alpha" maskUnits="userSpaceOnUse" x="8" y="8" width="24" height="24">
    <rect x="8" y="8" width="24" height="24" fill="#D9D9D9"/>
    </mask>
    <g mask="url(#mask0_153_21)">
    <path d="M20 24C21.25 24 22.3125 23.5625 23.1875 22.6875C24.0625 21.8125 24.5 20.75 24.5 19.5C24.5 18.25 24.0625 17.1875 23.1875 16.3125C22.3125 15.4375 21.25 15 20 15C18.75 15 17.6875 15.4375 16.8125 16.3125C15.9375 17.1875 15.5 18.25 15.5 19.5C15.5 20.75 15.9375 21.8125 16.8125 22.6875C17.6875 23.5625 18.75 24 20 24ZM20 22.2C19.25 22.2 18.6125 21.9375 18.0875 21.4125C17.5625 20.8875 17.3 20.25 17.3 19.5C17.3 18.75 17.5625 18.1125 18.0875 17.5875C18.6125 17.0625 19.25 16.8 20 16.8C20.75 16.8 21.3875 17.0625 21.9125 17.5875C22.4375 18.1125 22.7 18.75 22.7 19.5C22.7 20.25 22.4375 20.8875 21.9125 21.4125C21.3875 21.9375 20.75 22.2 20 22.2ZM20 27C17.5667 27 15.35 26.3208 13.35 24.9625C11.35 23.6042 9.9 21.7833 9 19.5C9.9 17.2167 11.35 15.3958 13.35 14.0375C15.35 12.6792 17.5667 12 20 12C22.4333 12 24.65 12.6792 26.65 14.0375C28.65 15.3958 30.1 17.2167 31 19.5C30.1 21.7833 28.65 23.6042 26.65 24.9625C24.65 26.3208 22.4333 27 20 27Z" fill="white"/>
    </g>
    </svg>
    