<svg width="40" height="40" viewBox="0 0 40 40" fill="none" xmlns="http://www.w3.org/2000/svg">
    <mask id="mask0_139_88" style="mask-type:alpha" maskUnits="userSpaceOnUse" x="0" y="0" width="40" height="40">
    <rect width="40" height="40" fill="#D9D9D9"/>
    </mask>
    <g mask="url(#mask0_139_88)">
    <path d="M35.0059 30.2915L32.5059 27.7915V7.49984H12.2142L9.71419 4.99984H32.5059C33.1725 4.99984 33.7559 5.24984 34.2559 5.74984C34.7559 6.24984 35.0059 6.83317 35.0059 7.49984V30.2915ZM33.5892 37.6665L30.9225 34.9998H7.50586C6.83919 34.9998 6.25586 34.7498 5.75586 34.2498C5.25586 33.7498 5.00586 33.1665 5.00586 32.4998V9.08317L2.38086 6.45817L4.17253 4.6665L35.3809 35.8748L33.5892 37.6665ZM9.83919 28.4582L14.7142 22.1248L18.5892 27.4165L20.6725 24.7082L7.50586 11.5415V32.4998H28.4642L24.4225 28.4582H9.83919Z" fill="#1C1B1F"/>
    </g>
    </svg>
    